<svg width="40" height="52" viewBox="0 0 40 52" fill="none" xmlns="http://www.w3.org/2000/svg">
<path fill-rule="evenodd" clip-rule="evenodd" d="M37.15 9.80156C37.15 14.7376 33.4522 18.8519 28.6899 19.511V31.365L27.3862 35.2856L26.0826 31.365V19.5211C21.2839 18.8953 17.5469 14.7637 17.5469 9.80156C17.5469 4.4107 21.9576 0 27.3485 0C32.7393 0 37.15 4.4107 37.15 9.80156ZM21.9258 7.42125C22.6666 8.05527 24.0142 7.69632 24.9359 6.61951C25.8575 5.54271 26.0041 4.15581 25.2633 3.5218C24.5225 2.88778 23.1749 3.24673 22.2533 4.32354C21.3317 5.40034 21.1851 6.78724 21.9258 7.42125Z" fill="#333333"/>
<path d="M12.8497 25L24.127 28.7762V31.365L27.3862 40.1864L30.6454 31.365V28.882L40 25V46.7359L27.8757 51.6667L12.8497 46.7359L0 51.6667V30.0314L12.8497 25Z" fill="#333333"/>
</svg>
